# xmcd
# Track frame offsets:
# 150
# 10025
# 19815
# 32995
# 42767
# 53250
# 64970
# 75900
# 85184
# 95220
# 109635
# 119621
#
# Disc length: 1727 seconds
# Revision: 0
# Processed by: cddbd v1.4PL0 Copyright (c) Steve Scherf et al.
# Submitted via: VisiTrax 2.9.5.181 - For more info visit www.synapsa.com
#
DISCID=8c06bd0c
DTITLE=Cuhamileros De La Sierra De Xichu - Caountry A La Mexican Vol 2
DYEAR=1900
DGENRE=Misc
TTITLE0=La Adelita
TTITLE1=Besos Y Cerezas
TTITLE2=El Corrido De Monterrey
TTITLE3=Los Ojos De Pancha
TTITLE4=La Puntada
TTITLE5=Tampico Hermosos
TTITLE6=Dos Arbolitos
TTITLE7=La Feria De Las Flores
TTITLE8=El Venadito
TTITLE9=Caminos De Michoacan
TTITLE10=Arriba el Norte
TTITLE11=Alla En El Racho Grande
EXTD=
EXTT0=
EXTT1=
EXTT2=
EXTT3=
EXTT4=
EXTT5=
EXTT6=
EXTT7=
EXTT8=
EXTT9=
EXTT10=
EXTT11=
PLAYORDER=
